<svg xmlns="http://www.w3.org/2000/svg" xmlns:xlink="http://www.w3.org/1999/xlink" width="200" zoomAndPan="magnify" viewBox="0 0 150 74.999997" height="100" preserveAspectRatio="xMidYMid meet" version="1.0"><defs><g/><clipPath id="6b9ced9eed"><path d="M 16 19.34375 L 39.878906 19.34375 L 39.878906 43 L 16 43 Z M 16 19.34375 " clip-rule="nonzero"/></clipPath><clipPath id="8584beaf48"><path d="M 3.128906 31 L 27 31 L 27 55.34375 L 3.128906 55.34375 Z M 3.128906 31 " clip-rule="nonzero"/></clipPath></defs><rect x="-15" width="180" fill="#ffffff" y="-7.5" height="89.999996" fill-opacity="1"/><rect x="-15" width="180" fill="#ffffff" y="-7.5" height="89.999996" fill-opacity="1"/><g clip-path="url(#6b9ced9eed)"><path fill="#67dcff" d="M 39.863281 37.378906 C 39.863281 40.371094 37.402344 42.792969 34.359375 42.792969 L 23.082031 42.792969 C 19.183594 42.792969 16.019531 39.679688 16.019531 35.847656 L 16.019531 24.757812 C 16.019531 21.765625 18.480469 19.34375 21.523438 19.34375 C 24.566406 19.34375 27.03125 21.765625 27.03125 24.757812 L 27.03125 31.964844 L 34.359375 31.964844 C 37.402344 31.964844 39.863281 34.394531 39.863281 37.378906 Z M 39.863281 37.378906 " fill-opacity="1" fill-rule="nonzero"/></g><g clip-path="url(#8584beaf48)"><path fill="#587dff" d="M 3.144531 37.308594 C 3.144531 34.316406 5.609375 31.894531 8.652344 31.894531 L 19.925781 31.894531 C 23.824219 31.894531 26.992188 35.007812 26.992188 38.839844 L 26.992188 49.929688 C 26.992188 52.921875 24.527344 55.34375 21.484375 55.34375 C 18.441406 55.34375 15.976562 52.921875 15.976562 49.929688 L 15.976562 42.722656 L 8.652344 42.722656 C 5.609375 42.722656 3.144531 40.300781 3.144531 37.308594 Z M 3.144531 37.308594 " fill-opacity="1" fill-rule="nonzero"/></g><path fill="#2720ff" d="M 26.992188 38.839844 L 26.992188 42.792969 L 23.082031 42.792969 C 19.183594 42.792969 16.019531 39.679688 16.019531 35.847656 L 16.019531 31.894531 L 19.925781 31.894531 C 23.824219 31.894531 26.992188 35.007812 26.992188 38.839844 Z M 26.992188 38.839844 " fill-opacity="1" fill-rule="nonzero"/><g fill="#000000" fill-opacity="1"><g transform="translate(40.809181, 46.630311)"><g><path d="M 16.625 0 L 11.96875 0 L 11.96875 -5.734375 L 9.6875 -1.546875 L 7.875 -1.546875 L 5.5625 -5.734375 L 5.5625 0 L 0.9375 0 L 0.9375 -14.25 L 5.078125 -14.25 L 8.78125 -6.8125 L 12.484375 -14.25 L 16.625 -14.25 Z M 16.625 0 "/></g></g></g><g fill="#000000" fill-opacity="1"><g transform="translate(58.34289, 46.630311)"><g><path d="M 13.078125 -5.703125 C 13.078125 -5.492188 13.054688 -5.273438 13.015625 -5.046875 C 12.984375 -4.816406 12.945312 -4.597656 12.90625 -4.390625 L 5.4375 -4.390625 C 5.726562 -3.609375 6.222656 -3.21875 6.921875 -3.21875 C 7.472656 -3.21875 7.851562 -3.484375 8.0625 -4.015625 L 12.65625 -3.25 C 12.238281 -2.144531 11.523438 -1.285156 10.515625 -0.671875 C 9.503906 -0.0664062 8.289062 0.234375 6.875 0.234375 C 4.894531 0.234375 3.367188 -0.28125 2.296875 -1.3125 C 1.222656 -2.351562 0.6875 -3.816406 0.6875 -5.703125 C 0.6875 -7.597656 1.222656 -9.054688 2.296875 -10.078125 C 3.367188 -11.109375 4.894531 -11.625 6.875 -11.625 C 8.84375 -11.625 10.367188 -11.109375 11.453125 -10.078125 C 12.535156 -9.054688 13.078125 -7.597656 13.078125 -5.703125 Z M 8.328125 -6.75 C 7.941406 -7.71875 7.457031 -8.203125 6.875 -8.203125 C 6.070312 -8.203125 5.554688 -7.71875 5.328125 -6.75 Z M 8.328125 -6.75 "/></g></g></g><g fill="#000000" fill-opacity="1"><g transform="translate(72.08476, 46.630311)"><g><path d="M 13.078125 -14.25 L 13.078125 0 L 8.4375 0 L 8.4375 -1.59375 C 7.75 -0.375 6.78125 0.234375 5.53125 0.234375 C 3.96875 0.234375 2.769531 -0.28125 1.9375 -1.3125 C 1.101562 -2.351562 0.6875 -3.816406 0.6875 -5.703125 C 0.6875 -7.597656 1.101562 -9.054688 1.9375 -10.078125 C 2.769531 -11.109375 3.96875 -11.625 5.53125 -11.625 C 6.800781 -11.625 7.769531 -11.023438 8.4375 -9.828125 L 8.4375 -14.25 Z M 6.875 -3.5 C 7.382812 -3.5 7.769531 -3.6875 8.03125 -4.0625 C 8.300781 -4.445312 8.4375 -4.992188 8.4375 -5.703125 C 8.4375 -7.179688 7.914062 -7.921875 6.875 -7.921875 C 5.789062 -7.921875 5.25 -7.179688 5.25 -5.703125 C 5.25 -4.992188 5.382812 -4.445312 5.65625 -4.0625 C 5.9375 -3.6875 6.34375 -3.5 6.875 -3.5 Z M 6.875 -3.5 "/></g></g></g><g fill="#000000" fill-opacity="1"><g transform="translate(86.083218, 46.630311)"><g><path d="M 3.25 -12.171875 C 2.507812 -12.171875 1.9375 -12.332031 1.53125 -12.65625 C 1.132812 -12.976562 0.9375 -13.4375 0.9375 -14.03125 C 0.9375 -14.613281 1.132812 -15.066406 1.53125 -15.390625 C 1.9375 -15.710938 2.507812 -15.875 3.25 -15.875 C 3.988281 -15.875 4.5625 -15.710938 4.96875 -15.390625 C 5.382812 -15.066406 5.59375 -14.613281 5.59375 -14.03125 C 5.59375 -13.4375 5.382812 -12.976562 4.96875 -12.65625 C 4.5625 -12.332031 3.988281 -12.171875 3.25 -12.171875 Z M 5.59375 -11.40625 L 5.59375 0 L 0.9375 0 L 0.9375 -11.40625 Z M 5.59375 -11.40625 "/></g></g></g><g fill="#000000" fill-opacity="1"><g transform="translate(92.583519, 46.630311)"><g><path d="M 8.984375 -5.953125 C 8.773438 -4.515625 8.1875 -3.796875 7.21875 -3.796875 C 6.625 -3.796875 6.160156 -4.082031 5.828125 -4.65625 C 5.492188 -5.238281 5.328125 -6.0625 5.328125 -7.125 C 5.328125 -8.207031 5.492188 -9.035156 5.828125 -9.609375 C 6.160156 -10.191406 6.625 -10.484375 7.21875 -10.484375 C 7.65625 -10.484375 8.03125 -10.289062 8.34375 -9.90625 C 8.65625 -9.53125 8.867188 -8.992188 8.984375 -8.296875 L 13.453125 -9 C 13.085938 -10.75 12.363281 -12.097656 11.28125 -13.046875 C 10.195312 -14.003906 8.832031 -14.484375 7.1875 -14.484375 C 5.132812 -14.484375 3.550781 -13.84375 2.4375 -12.5625 C 1.320312 -11.289062 0.765625 -9.476562 0.765625 -7.125 C 0.765625 -4.789062 1.320312 -2.976562 2.4375 -1.6875 C 3.550781 -0.40625 5.132812 0.234375 7.1875 0.234375 C 8.832031 0.234375 10.195312 -0.242188 11.28125 -1.203125 C 12.363281 -2.171875 13.085938 -3.519531 13.453125 -5.25 Z M 8.984375 -5.953125 "/></g></g></g><g fill="#000000" fill-opacity="1"><g transform="translate(106.78155, 46.630311)"><g><path d="M 13.078125 -11.40625 L 13.078125 0 L 8.4375 0 L 8.4375 -1.59375 C 7.75 -0.375 6.78125 0.234375 5.53125 0.234375 C 3.96875 0.234375 2.769531 -0.28125 1.9375 -1.3125 C 1.101562 -2.351562 0.6875 -3.816406 0.6875 -5.703125 C 0.6875 -7.597656 1.101562 -9.054688 1.9375 -10.078125 C 2.769531 -11.109375 3.96875 -11.625 5.53125 -11.625 C 6.800781 -11.625 7.769531 -11.023438 8.4375 -9.828125 L 8.4375 -11.40625 Z M 6.875 -3.5 C 7.382812 -3.5 7.769531 -3.6875 8.03125 -4.0625 C 8.300781 -4.445312 8.4375 -4.992188 8.4375 -5.703125 C 8.4375 -7.179688 7.914062 -7.921875 6.875 -7.921875 C 5.789062 -7.921875 5.25 -7.179688 5.25 -5.703125 C 5.25 -4.992188 5.382812 -4.445312 5.65625 -4.0625 C 5.9375 -3.6875 6.34375 -3.5 6.875 -3.5 Z M 6.875 -3.5 "/></g></g></g><g fill="#000000" fill-opacity="1"><g transform="translate(120.780008, 46.630311)"><g><path d="M 8.84375 -11.625 C 9.582031 -11.625 10.273438 -11.457031 10.921875 -11.125 C 11.566406 -10.789062 12.078125 -10.265625 12.453125 -9.546875 L 9.296875 -6.609375 C 8.722656 -7.390625 8.019531 -7.78125 7.1875 -7.78125 C 6.78125 -7.78125 6.441406 -7.519531 6.171875 -7 C 5.898438 -6.476562 5.695312 -5.722656 5.5625 -4.734375 L 5.5625 0 L 0.9375 0 L 0.9375 -11.40625 L 5.5625 -11.40625 L 5.5625 -9.609375 C 6.226562 -10.921875 7.320312 -11.59375 8.84375 -11.625 Z M 8.84375 -11.625 "/></g></g></g><g fill="#000000" fill-opacity="1"><g transform="translate(133.466996, 46.630311)"><g><path d="M 13.078125 -5.703125 C 13.078125 -5.492188 13.054688 -5.273438 13.015625 -5.046875 C 12.984375 -4.816406 12.945312 -4.597656 12.90625 -4.390625 L 5.4375 -4.390625 C 5.726562 -3.609375 6.222656 -3.21875 6.921875 -3.21875 C 7.472656 -3.21875 7.851562 -3.484375 8.0625 -4.015625 L 12.65625 -3.25 C 12.238281 -2.144531 11.523438 -1.285156 10.515625 -0.671875 C 9.503906 -0.0664062 8.289062 0.234375 6.875 0.234375 C 4.894531 0.234375 3.367188 -0.28125 2.296875 -1.3125 C 1.222656 -2.351562 0.6875 -3.816406 0.6875 -5.703125 C 0.6875 -7.597656 1.222656 -9.054688 2.296875 -10.078125 C 3.367188 -11.109375 4.894531 -11.625 6.875 -11.625 C 8.84375 -11.625 10.367188 -11.109375 11.453125 -10.078125 C 12.535156 -9.054688 13.078125 -7.597656 13.078125 -5.703125 Z M 8.328125 -6.75 C 7.941406 -7.71875 7.457031 -8.203125 6.875 -8.203125 C 6.070312 -8.203125 5.554688 -7.71875 5.328125 -6.75 Z M 8.328125 -6.75 "/></g></g></g></svg>